<svg xmlns="http://www.w3.org/2000/svg" width="1600" height="900" viewBox="0 0 1600 900" role="img" aria-labelledby="title desc">
  <title id="title">Premium developer workspace illustration</title>
  <desc id="desc">A modern frontend developer desk with code panels, dashboards, devices, and colorful product cards.</desc>
  <defs>
    <linearGradient id="bg" x1="0" y1="0" x2="1" y2="1">
      <stop offset="0" stop-color="#f8f4ec"/>
      <stop offset="0.45" stop-color="#e9fbf9"/>
      <stop offset="1" stop-color="#fff1ee"/>
    </linearGradient>
    <linearGradient id="screen" x1="0" y1="0" x2="1" y2="1">
      <stop offset="0" stop-color="#10211f"/>
      <stop offset="1" stop-color="#173c36"/>
    </linearGradient>
    <linearGradient id="coral" x1="0" y1="0" x2="1" y2="1">
      <stop offset="0" stop-color="#ff8a72"/>
      <stop offset="1" stop-color="#ff5b4a"/>
    </linearGradient>
    <linearGradient id="teal" x1="0" y1="0" x2="1" y2="1">
      <stop offset="0" stop-color="#1ed7c4"/>
      <stop offset="1" stop-color="#087f78"/>
    </linearGradient>
    <filter id="shadow" x="-20%" y="-20%" width="140%" height="140%">
      <feDropShadow dx="0" dy="22" stdDeviation="28" flood-color="#10211f" flood-opacity="0.18"/>
    </filter>
  </defs>
  <rect width="1600" height="900" fill="url(#bg)"/>
  <path d="M0 740 C240 650 336 880 580 760 C760 670 854 572 1068 662 C1265 745 1410 750 1600 626 L1600 900 L0 900 Z" fill="#10211f" opacity="0.08"/>
  <path d="M45 230 C230 34 434 108 570 188 C735 285 850 124 1018 89 C1255 39 1454 187 1517 355 C1586 539 1443 691 1209 650 C997 613 895 721 690 680 C486 640 418 534 238 550 C68 565 -56 400 45 230 Z" fill="#ffffff" opacity="0.62"/>
  <g filter="url(#shadow)">
    <rect x="365" y="132" width="865" height="540" rx="28" fill="#101817"/>
    <rect x="391" y="158" width="813" height="488" rx="20" fill="url(#screen)"/>
    <rect x="391" y="158" width="813" height="56" rx="20" fill="#162a27"/>
    <circle cx="430" cy="186" r="8" fill="#ff6b5f"/>
    <circle cx="456" cy="186" r="8" fill="#f7c948"/>
    <circle cx="482" cy="186" r="8" fill="#27c4aa"/>
    <rect x="430" y="252" width="280" height="24" rx="12" fill="#b9f227"/>
    <rect x="430" y="303" width="514" height="14" rx="7" fill="#d9fff7" opacity="0.75"/>
    <rect x="430" y="338" width="390" height="14" rx="7" fill="#9debdc" opacity="0.8"/>
    <rect x="430" y="373" width="470" height="14" rx="7" fill="#ffd2c9" opacity="0.85"/>
    <rect x="430" y="408" width="315" height="14" rx="7" fill="#d9fff7" opacity="0.75"/>
    <rect x="430" y="478" width="198" height="98" rx="12" fill="#f8f4ec"/>
    <rect x="654" y="478" width="198" height="98" rx="12" fill="#fff1ee"/>
    <rect x="878" y="478" width="198" height="98" rx="12" fill="#e9fbf9"/>
    <path d="M454 542 L492 507 L529 532 L570 492" fill="none" stroke="#087f78" stroke-width="10" stroke-linecap="round" stroke-linejoin="round"/>
    <rect x="684" y="502" width="42" height="50" rx="8" fill="#ff6b5f"/>
    <rect x="740" y="520" width="42" height="32" rx="8" fill="#10211f"/>
    <rect x="796" y="490" width="42" height="62" rx="8" fill="#087f78"/>
    <circle cx="931" cy="526" r="38" fill="none" stroke="#ff6b5f" stroke-width="13"/>
    <path d="M931 488 A38 38 0 0 1 969 526" fill="none" stroke="#b9f227" stroke-width="13" stroke-linecap="round"/>
    <rect x="970" y="248" width="168" height="150" rx="18" fill="#f8f4ec"/>
    <rect x="995" y="276" width="70" height="14" rx="7" fill="#10211f"/>
    <rect x="995" y="310" width="118" height="12" rx="6" fill="#087f78"/>
    <rect x="995" y="340" width="90" height="12" rx="6" fill="#ff6b5f"/>
    <rect x="995" y="370" width="58" height="12" rx="6" fill="#10211f"/>
  </g>
  <g filter="url(#shadow)">
    <rect x="236" y="394" width="200" height="380" rx="32" fill="#101817"/>
    <rect x="256" y="428" width="160" height="300" rx="22" fill="#f8f4ec"/>
    <circle cx="336" cy="746" r="12" fill="#283735"/>
    <rect x="284" y="466" width="104" height="18" rx="9" fill="#087f78"/>
    <rect x="284" y="512" width="72" height="72" rx="18" fill="#ffd2c9"/>
    <rect x="284" y="612" width="104" height="12" rx="6" fill="#10211f"/>
    <rect x="284" y="642" width="76" height="12" rx="6" fill="#ff6b5f"/>
    <rect x="284" y="672" width="92" height="12" rx="6" fill="#087f78"/>
  </g>
  <g filter="url(#shadow)">
    <rect x="1184" y="442" width="212" height="248" rx="20" fill="#ffffff"/>
    <rect x="1216" y="475" width="148" height="16" rx="8" fill="#10211f"/>
    <path d="M1230 623 C1260 565 1308 638 1336 568" fill="none" stroke="#ff6b5f" stroke-width="12" stroke-linecap="round"/>
    <circle cx="1240" cy="540" r="15" fill="#087f78"/>
    <circle cx="1292" cy="540" r="15" fill="#f7c948"/>
    <circle cx="1344" cy="540" r="15" fill="#ff6b5f"/>
  </g>
  <g opacity="0.95">
    <rect x="117" y="151" width="130" height="130" rx="28" fill="url(#coral)"/>
    <path d="M154 216 L178 240 L213 190" fill="none" stroke="#fff" stroke-width="15" stroke-linecap="round" stroke-linejoin="round"/>
    <rect x="1290" y="165" width="130" height="130" rx="28" fill="url(#teal)"/>
    <path d="M1324 232 H1388 M1356 200 V264" stroke="#fff" stroke-width="14" stroke-linecap="round"/>
    <rect x="104" y="608" width="94" height="94" rx="24" fill="#b9f227"/>
    <path d="M132 654 H170 M151 635 V673" stroke="#10211f" stroke-width="10" stroke-linecap="round"/>
  </g>
</svg>
