<svg xmlns="http://www.w3.org/2000/svg" width="720" height="720" viewBox="0 0 720 720" role="img" aria-labelledby="title desc">
  <title id="title">Illustrated portrait of Shreya Patil</title>
  <desc id="desc">A polished illustrated portrait for a freelance developer portfolio.</desc>
  <defs>
    <linearGradient id="bg" x1="0" y1="0" x2="1" y2="1">
      <stop offset="0" stop-color="#e9fbf9"/>
      <stop offset="0.55" stop-color="#fff6e6"/>
      <stop offset="1" stop-color="#ffe5df"/>
    </linearGradient>
    <linearGradient id="jacket" x1="0" y1="0" x2="1" y2="1">
      <stop offset="0" stop-color="#10211f"/>
      <stop offset="1" stop-color="#087f78"/>
    </linearGradient>
    <filter id="shadow" x="-20%" y="-20%" width="140%" height="140%">
      <feDropShadow dx="0" dy="22" stdDeviation="28" flood-color="#10211f" flood-opacity="0.18"/>
    </filter>
  </defs>
  <rect width="720" height="720" rx="56" fill="url(#bg)"/>
  <circle cx="575" cy="118" r="58" fill="#ff6b5f" opacity="0.9"/>
  <circle cx="130" cy="566" r="74" fill="#b9f227" opacity="0.9"/>
  <path d="M73 234 C147 92 288 71 418 112 C560 157 642 289 616 430 C588 584 430 658 279 624 C114 587 2 370 73 234 Z" fill="#ffffff" opacity="0.72"/>
  <g filter="url(#shadow)">
    <path d="M172 628 C196 503 264 442 360 442 C456 442 524 503 548 628 Z" fill="url(#jacket)"/>
    <path d="M286 450 C302 510 329 548 360 548 C391 548 418 510 434 450 C412 433 390 425 360 425 C330 425 308 433 286 450 Z" fill="#ffd2c9"/>
    <path d="M267 280 C270 190 327 137 400 150 C469 162 507 227 493 311 C478 405 425 456 359 456 C289 456 264 372 267 280 Z" fill="#ffd2c9"/>
    <path d="M254 306 C218 219 278 124 372 111 C454 100 529 151 544 231 C558 304 521 363 491 395 C497 345 481 302 453 271 C405 304 341 303 289 274 C285 323 276 364 257 397 C240 363 238 331 254 306 Z" fill="#2f241f"/>
    <path d="M314 339 C334 354 385 356 410 339" fill="none" stroke="#6e3f35" stroke-width="8" stroke-linecap="round"/>
    <circle cx="328" cy="293" r="8" fill="#10211f"/>
    <circle cx="414" cy="293" r="8" fill="#10211f"/>
    <path d="M359 302 C352 330 347 347 367 350" fill="none" stroke="#b86e63" stroke-width="6" stroke-linecap="round"/>
    <rect x="196" y="520" width="328" height="108" rx="24" fill="#ffffff" opacity="0.16"/>
    <path d="M244 590 H476" stroke="#f8f4ec" stroke-width="16" stroke-linecap="round" opacity="0.88"/>
    <path d="M286 548 L337 604 L360 548 L383 604 L434 548" fill="none" stroke="#b9f227" stroke-width="10" stroke-linecap="round" stroke-linejoin="round"/>
  </g>
  <g fill="none" stroke-linecap="round" stroke-linejoin="round">
    <path d="M104 176 H198 M151 129 V223" stroke="#087f78" stroke-width="12"/>
    <path d="M546 502 L587 543 L647 468" stroke="#ff6b5f" stroke-width="14"/>
  </g>
</svg>
