<svg xmlns="http://www.w3.org/2000/svg" width="900" height="560" viewBox="0 0 900 560" role="img" aria-labelledby="title desc">
  <title id="title">UI kit design project screenshot mockup</title>
  <desc id="desc">A UI design system board with buttons, cards, color swatches, and mobile app components.</desc>
  <rect width="900" height="560" rx="28" fill="#fff1ee"/>
  <rect x="84" y="70" width="732" height="420" rx="24" fill="#ffffff"/>
  <rect x="124" y="112" width="196" height="336" rx="28" fill="#10211f"/>
  <rect x="148" y="152" width="148" height="16" rx="8" fill="#b9f227"/>
  <rect x="148" y="200" width="148" height="96" rx="18" fill="#f8f4ec"/>
  <rect x="148" y="324" width="148" height="42" rx="21" fill="#ff6b5f"/>
  <rect x="148" y="386" width="148" height="20" rx="10" fill="#d9fff7" opacity=".8"/>
  <rect x="374" y="128" width="130" height="74" rx="18" fill="#087f78"/>
  <rect x="534" y="128" width="130" height="74" rx="18" fill="#ff6b5f"/>
  <rect x="694" y="128" width="74" height="74" rx="18" fill="#b9f227"/>
  <rect x="374" y="248" width="394" height="46" rx="23" fill="#10211f"/>
  <rect x="374" y="328" width="160" height="100" rx="18" fill="#f8f4ec"/>
  <rect x="568" y="328" width="200" height="100" rx="18" fill="#f8f4ec"/>
  <rect x="410" y="364" width="88" height="12" rx="6" fill="#087f78"/>
  <rect x="604" y="364" width="124" height="12" rx="6" fill="#ff6b5f"/>
  <path d="M408 271 H520 M566 271 H706" stroke="#f8f4ec" stroke-width="12" stroke-linecap="round"/>
</svg>
