<svg xmlns="http://www.w3.org/2000/svg" width="900" height="560" viewBox="0 0 900 560" role="img" aria-labelledby="title desc">
  <title id="title">Java institute management system screenshot mockup</title>
  <desc id="desc">A Java and database project dashboard for managing admissions, fees, and student attendance.</desc>
  <rect width="900" height="560" rx="28" fill="#e9fbf9"/>
  <rect x="76" y="68" width="748" height="424" rx="24" fill="#10211f"/>
  <rect x="104" y="102" width="692" height="62" rx="14" fill="#f8f4ec"/>
  <rect x="104" y="196" width="200" height="246" rx="18" fill="#f8f4ec"/>
  <rect x="334" y="196" width="462" height="246" rx="18" fill="#f8f4ec"/>
  <rect x="130" y="126" width="180" height="14" rx="7" fill="#10211f"/>
  <rect x="130" y="232" width="118" height="14" rx="7" fill="#087f78"/>
  <rect x="130" y="276" width="140" height="12" rx="6" fill="#10211f" opacity=".7"/>
  <rect x="130" y="314" width="108" height="12" rx="6" fill="#10211f" opacity=".5"/>
  <rect x="130" y="352" width="128" height="12" rx="6" fill="#10211f" opacity=".5"/>
  <rect x="370" y="232" width="378" height="14" rx="7" fill="#10211f"/>
  <rect x="370" y="278" width="378" height="12" rx="6" fill="#087f78" opacity=".75"/>
  <rect x="370" y="318" width="310" height="12" rx="6" fill="#ff6b5f" opacity=".75"/>
  <rect x="370" y="358" width="340" height="12" rx="6" fill="#10211f" opacity=".5"/>
  <path d="M662 108 C650 139 689 137 676 163 C719 151 715 112 687 98" fill="none" stroke="#ff6b5f" stroke-width="10" stroke-linecap="round" stroke-linejoin="round"/>
  <text x="618" y="150" fill="#10211f" font-family="Arial, sans-serif" font-size="46" font-weight="700">Java</text>
</svg>
