<svg xmlns="http://www.w3.org/2000/svg" width="900" height="560" viewBox="0 0 900 560" role="img" aria-labelledby="title desc">
  <title id="title">SaaS dashboard project screenshot mockup</title>
  <desc id="desc">A responsive analytics dashboard with charts, metric cards, and sidebar navigation.</desc>
  <defs>
    <linearGradient id="bg" x1="0" y1="0" x2="1" y2="1"><stop stop-color="#e9fbf9"/><stop offset="1" stop-color="#fff1ee"/></linearGradient>
  </defs>
  <rect width="900" height="560" rx="28" fill="url(#bg)"/>
  <rect x="56" y="54" width="788" height="452" rx="24" fill="#10211f"/>
  <rect x="82" y="88" width="164" height="384" rx="18" fill="#172b28"/>
  <rect x="278" y="88" width="540" height="78" rx="18" fill="#f8f4ec"/>
  <rect x="278" y="194" width="154" height="118" rx="18" fill="#f8f4ec"/>
  <rect x="458" y="194" width="154" height="118" rx="18" fill="#f8f4ec"/>
  <rect x="638" y="194" width="180" height="118" rx="18" fill="#f8f4ec"/>
  <rect x="278" y="340" width="340" height="132" rx="18" fill="#f8f4ec"/>
  <rect x="644" y="340" width="174" height="132" rx="18" fill="#f8f4ec"/>
  <rect x="114" y="122" width="86" height="14" rx="7" fill="#b9f227"/>
  <rect x="114" y="184" width="92" height="12" rx="6" fill="#d9fff7" opacity=".8"/>
  <rect x="114" y="226" width="70" height="12" rx="6" fill="#d9fff7" opacity=".55"/>
  <rect x="114" y="268" width="108" height="12" rx="6" fill="#d9fff7" opacity=".55"/>
  <rect x="114" y="310" width="78" height="12" rx="6" fill="#d9fff7" opacity=".55"/>
  <rect x="306" y="116" width="182" height="16" rx="8" fill="#10211f"/>
  <rect x="306" y="142" width="300" height="10" rx="5" fill="#087f78"/>
  <rect x="310" y="236" width="84" height="18" rx="9" fill="#087f78"/>
  <rect x="490" y="236" width="84" height="18" rx="9" fill="#ff6b5f"/>
  <rect x="674" y="236" width="84" height="18" rx="9" fill="#10211f"/>
  <path d="M312 430 C358 366 404 452 450 394 C492 340 536 414 584 372" fill="none" stroke="#087f78" stroke-width="12" stroke-linecap="round"/>
  <circle cx="730" cy="406" r="42" fill="none" stroke="#ff6b5f" stroke-width="16"/>
  <path d="M730 364 A42 42 0 0 1 772 406" fill="none" stroke="#b9f227" stroke-width="16" stroke-linecap="round"/>
</svg>
