<svg xmlns="http://www.w3.org/2000/svg" width="900" height="560" viewBox="0 0 900 560" role="img" aria-labelledby="title desc">
  <title id="title">Cafe commerce website project screenshot mockup</title>
  <desc id="desc">A polished local business ordering website for a cafe with menu cards and conversion actions.</desc>
  <rect width="900" height="560" rx="28" fill="#fff6e6"/>
  <rect x="58" y="70" width="784" height="420" rx="28" fill="#ffffff"/>
  <rect x="58" y="70" width="784" height="138" rx="28" fill="#10211f"/>
  <circle cx="738" cy="151" r="78" fill="#ff6b5f"/>
  <circle cx="770" cy="129" r="52" fill="#f7c948"/>
  <rect x="106" y="116" width="202" height="18" rx="9" fill="#f8f4ec"/>
  <rect x="106" y="154" width="312" height="12" rx="6" fill="#d9fff7" opacity=".75"/>
  <rect x="106" y="242" width="202" height="198" rx="20" fill="#f8f4ec"/>
  <rect x="348" y="242" width="202" height="198" rx="20" fill="#f8f4ec"/>
  <rect x="590" y="242" width="202" height="198" rx="20" fill="#f8f4ec"/>
  <circle cx="207" cy="314" r="45" fill="#087f78"/>
  <circle cx="449" cy="314" r="45" fill="#ff6b5f"/>
  <circle cx="691" cy="314" r="45" fill="#f7c948"/>
  <rect x="142" y="382" width="128" height="14" rx="7" fill="#10211f"/>
  <rect x="384" y="382" width="128" height="14" rx="7" fill="#10211f"/>
  <rect x="626" y="382" width="128" height="14" rx="7" fill="#10211f"/>
  <rect x="166" y="414" width="80" height="12" rx="6" fill="#087f78"/>
  <rect x="408" y="414" width="80" height="12" rx="6" fill="#ff6b5f"/>
  <rect x="650" y="414" width="80" height="12" rx="6" fill="#087f78"/>
</svg>
