<svg xmlns="http://www.w3.org/2000/svg" width="900" height="560" viewBox="0 0 900 560" role="img" aria-labelledby="title desc">
  <title id="title">Database project screenshot mockup</title>
  <desc id="desc">A secure database and backend dashboard with tables, storage nodes, and query panels.</desc>
  <rect width="900" height="560" rx="28" fill="#f8f4ec"/>
  <rect x="72" y="72" width="756" height="416" rx="24" fill="#10211f"/>
  <rect x="112" y="116" width="294" height="328" rx="18" fill="#172b28"/>
  <rect x="452" y="116" width="336" height="150" rx="18" fill="#f8f4ec"/>
  <rect x="452" y="294" width="336" height="150" rx="18" fill="#f8f4ec"/>
  <ellipse cx="260" cy="173" rx="86" ry="32" fill="#087f78"/>
  <path d="M174 173 V265 C174 283 213 297 260 297 C307 297 346 283 346 265 V173" fill="none" stroke="#087f78" stroke-width="18"/>
  <ellipse cx="260" cy="265" rx="86" ry="32" fill="none" stroke="#087f78" stroke-width="18"/>
  <ellipse cx="260" cy="345" rx="86" ry="32" fill="#ff6b5f"/>
  <path d="M174 345 V392 C174 410 213 424 260 424 C307 424 346 410 346 392 V345" fill="none" stroke="#ff6b5f" stroke-width="18"/>
  <rect x="492" y="154" width="230" height="14" rx="7" fill="#10211f"/>
  <rect x="492" y="192" width="180" height="12" rx="6" fill="#087f78"/>
  <rect x="492" y="336" width="246" height="14" rx="7" fill="#10211f"/>
  <rect x="492" y="374" width="198" height="12" rx="6" fill="#ff6b5f"/>
</svg>
